<?xml version="1.0" encoding="UTF-8" standalone="no"?>

<svg
   version="1.1"
   width="52.235px"
   height="52.235px"
   viewBox="0 0 52.235 52.235"
   xmlns="http://www.w3.org/2000/svg"
   xmlns:svg="http://www.w3.org/2000/svg">
<path
   d="m 44.617444,7.6724584 c -10.186003,-10.212 -26.720003,-10.237 -36.9340023,-0.053 -10.2140004,10.1849996 -10.2380004,26.7229996 -0.056,36.9369996 10.1859993,10.215 26.7279993,10.236 36.9370023,0.051 10.214,-10.184 10.24,-26.718 0.053,-36.9349996 z"
   style="fill:CurrentColor" />



<path
   d="m 31.203574,12.894039 a 2.161,2.161 0 0 0 -0.68,0.11 c -0.848,0.285 -1.591,1.206 -1.591,2.214 v 6 h -2.141 l -5.627,-7.412 a 2.33,2.33 0 0 0 -1.213,-0.81 2.53,2.53 0 0 0 -0.713,-0.1 2.165,2.165 0 0 0 -0.68,0.107 c -0.848,0.286 -1.591,1.207 -1.591,2.215 v 6 h -3 c -1.634,0 -3.000001,1.367 -3.000001,3 v 5 c 0,1.633 1.366001,3 3.000001,3 h 3 v 5 c 0,1.003 0.722,1.92 1.562,2.22 0.84,0.302 1.979,0.054 2.617,-0.72 l 5.36,-6.5 h 2.426 v 5 c 0,1.003 0.722,1.92 1.562,2.22 0.84,0.302 1.979,0.054 2.617,-0.72 l 9.856,-11.953 -9.836,-12.959 a 2.334,2.334 0 0 0 -1.215,-0.81 2.534,2.534 0 0 0 -0.713,-0.102 z m -11.801,2.002 a 0.337,0.337 0 0 1 0.17,0.119 l 8.879,11.699 -8.848,10.732 a 0.36,0.36 0 0 1 -0.636,-0.229 v -6 a 1,1 0 0 0 -1,-1 h -4 a 1,1 0 0 1 -1,-1 v -5 a 1,1 0 0 1 1,-1 h 4 a 1,1 0 0 0 1,-1 v -6.999 a 0.337,0.337 0 0 1 0.436,-0.322 z"
   style="fill:#ffffff" /></svg>
