<?xml version="1.0" encoding="UTF-8"?>
<svg version="1.1" viewBox="0 0 32 32" xmlns="http://www.w3.org/2000/svg">
 <path d="M20.762 5.152a1.944 1.944 0 0 0-.217.024h-.002a1.86 1.86 0 0 0-1.54 1.822V12H16.13l1.938 1.865a2.978 2.978 0 0 1 0 4.27L16.14 19.99l2.861.008V25a1.88 1.88 0 0 0 1.127 1.703c.626.266 1.45.17 2.008-.369l9.27-8.92c.791-.757.791-2.06 0-2.828l-9.27-8.92-.002-.002a1.85 1.85 0 0 0-1.373-.512zm-13.9.002a1.768 1.768 0 0 0-.23.01l-.079.01a1.771 1.771 0 0 0-.234.05 1.75 1.75 0 0 0-.219.073A1.89 1.89 0 0 0 4.973 7v5H.001v7.987l4.972.011V25c0 .775.502 1.437 1.127 1.703a1.88 1.88 0 0 0 2.008-.37l9.268-8.919a1.98 1.98 0 0 0 0-2.828L14.69 12 8.108 5.666a1.842 1.842 0 0 0-1.246-.512zm.111 2.196L15.96 16l-8.987 8.65v-6.648l-4.972-.012V14h4.972z" fill="#096"/>
</svg>
