<?xml version="1.0" encoding="UTF-8"?>
<svg version="1.1" width="32" height="32" viewBox="0 0 32 32" xmlns="http://www.w3.org/2000/svg">
 <path d="M20.236 2.676a2.161 2.161 0 0 0-.68.11c-.848.285-1.591 1.206-1.591 2.214v6h-2.141l-5.627-7.412a2.33 2.33 0 0 0-1.213-.81 2.53 2.53 0 0 0-.713-.1 2.165 2.165 0 0 0-.68.107C6.743 3.071 6 3.992 6 5v6H3c-1.634 0-3 1.367-3 3v5c0 1.633 1.366 3 3 3h3v5c0 1.003.722 1.92 1.562 2.22.84.302 1.979.054 2.617-.72l5.36-6.5h2.426v5c0 1.003.722 1.92 1.562 2.22.84.302 1.979.054 2.617-.72L32 16.547 22.164 3.588a2.334 2.334 0 0 0-1.215-.81 2.534 2.534 0 0 0-.713-.102zM8.435 4.678a.337.337 0 0 1 .17.119l8.879 11.699-8.848 10.732A.36.36 0 0 1 8 26.999v-6a1 1 0 0 0-1-1H3a1 1 0 0 1-1-1v-5a1 1 0 0 1 1-1h4a1 1 0 0 0 1-1V5a.337.337 0 0 1 .436-.322z" fill="#096" />
</svg>
